<?xml version="1.0" encoding="iso-8859-1"?>
<!-- Generator: Adobe Illustrator 19.0.0, SVG Export Plug-In . SVG Version: 6.00 Build 0)  -->
<svg version="1.1" id="Layer_1" xmlns="http://www.w3.org/2000/svg" xmlns:xlink="http://www.w3.org/1999/xlink" x="0px" y="0px"
	 viewBox="0 0 495 495" style="enable-background:new 0 0 495 495;" xml:space="preserve">
<g>
	<path style="fill:#B3D8F4;" d="M267.5,42.645V0h-40v42.645c6.503-1.113,13.184-1.701,20-1.701S260.997,41.531,267.5,42.645z"/>
	<path style="fill:#FFA733;" d="M247.5,40.943c-6.816,0-13.497,0.588-20,1.701c-49.066,8.401-87.879,47.159-96.301,96.161H247.5
		V40.943z"/>
	<path style="fill:#FF9811;" d="M247.5,138.806h116.301c-8.422-49.002-47.235-87.76-96.301-96.161
		c-6.503-1.113-13.184-1.701-20-1.701V138.806z"/>
	<rect x="96.783" y="138.806" style="fill:#B3D8F4;" width="301.434" height="66.848"/>
	<polygon style="fill:#005ECE;" points="247.5,284.583 247.5,205.653 0,205.653 0,495 107.644,495 107.644,328.216 	"/>
	<polygon style="fill:#004FAC;" points="247.5,205.653 247.5,284.583 387.356,328.216 387.356,495 495,495 495,205.653 	"/>
	<polygon style="fill:#FFA733;" points="247.5,284.583 107.644,328.216 107.644,495 187.548,495 187.548,376.877 227.548,376.877 
		227.548,495 267.452,495 267.452,376.877 307.452,376.877 307.452,495 387.356,495 387.356,328.216 	"/>
	<rect x="187.548" y="376.877" style="fill:#FFFFFF;" width="40" height="118.123"/>
	<rect x="267.452" y="376.877" style="fill:#FFFFFF;" width="40" height="118.123"/>
</g>
<g>
</g>
<g>
</g>
<g>
</g>
<g>
</g>
<g>
</g>
<g>
</g>
<g>
</g>
<g>
</g>
<g>
</g>
<g>
</g>
<g>
</g>
<g>
</g>
<g>
</g>
<g>
</g>
<g>
</g>
</svg>
